<?xml version="1.0" encoding="UTF-8" standalone="no"?>
<!-- Generator: Adobe Illustrator 14.0.0, SVG Export Plug-In . SVG Version: 6.00 Build 43363)  -->
<!DOCTYPE svg  PUBLIC '-//W3C//DTD SVG 1.1//EN'  'http://www.w3.org/Graphics/SVG/1.1/DTD/svg11.dtd'>
<svg id="Ebene_1" xmlns="http://www.w3.org/2000/svg" xml:space="preserve" height="307px" viewBox="0 0 1024 307" width="1024px" version="1.1" y="0px" x="0px" xmlns:xlink="http://www.w3.org/1999/xlink" enable-background="new 0 0 1024 307">
<path fill="#F8991C" clip-rule="evenodd" d="m30.326 288.22c15.311 0 23.538-6.523 23.538-27.795h-16.168c-0.282 6.242 0.287 16.167-7.371 16.167-9.361 0-10.494-8.791-10.494-28.923s1.133-28.929 10.494-28.929c4.816 0 6.806 3.975 6.806 14.464h15.88c0.852-16.731-5.955-26.087-22.686-26.087-27.225 0.01-27.225 19.86-27.225 40.56s0 40.55 27.226 40.55" fill-rule="evenodd"/>
<path fill="#F8991C" clip-rule="evenodd" d="m65.769 232.08v55.016h15.315v-30.063c0-5.386 0.282-13.331 13.9-12.479v-13.607c-6.242 0-11.628 1.703-14.469 8.222v-7.088h-14.746" fill-rule="evenodd"/>
<path fill="#F8991C" clip-rule="evenodd" d="m146.02 249.37c0-9.925-2.554-18.429-22.117-18.429-5.959 0-10.776 0.852-14.177 3.683-3.693 2.272-5.673 6.524-5.673 13.331h15.028c0-4.258 0.282-8.51 5.673-8.51 5.386 0 6.237 3.406 6.237 8.228v4.252c-14.464-0.282-28.359 0.569-28.359 18.717 0 9.638 3.97 17.582 14.459 17.582 6.811 0 11.346-2.836 14.464-8.509h0.282l0.569 7.376h14.182c-0.282-3.401-0.569-6.812-0.569-10.213v-27.51m-15.01 11.06c0 5.96 1.416 18.152-7.658 18.152-5.104 0-5.673-4.816-5.673-8.791 0-9.64 5.67-9.07 13.33-9.36z" fill-rule="evenodd"/>
<path fill="#F8991C" clip-rule="evenodd" d="m176.37 232.08h-15.598v55.016h15.598v-38.003c0-4.821 0.852-8.791 5.673-8.791s5.668 3.97 5.668 8.791v38.003h15.311v-44.239c0-7.658-6.232-11.91-13.608-11.91-2.836 0-5.391 0.564-7.371 1.421-2.272 1.128-3.975 2.831-5.673 5.104v-5.39" fill-rule="evenodd"/>
<path fill="#F8991C" clip-rule="evenodd" d="m260.02 261.85c0.569-17.583-1.698-30.908-22.399-30.908-20.419 0-22.404 12.756-22.404 27.785 0 17.301 2.554 29.497 22.404 29.497 7.088 0 12.474-1.984 16.167-5.386 3.683-3.41 5.663-8.227 5.95-14.464h-15.598c0 4.821-1.128 9.925-6.519 9.925-6.807 0-7.089-9.925-7.089-16.449h29.49m-29.49-8.5c0-4.545 0-13.049 7.089-13.049 7.371 0 7.088 7.658 7.088 13.049h-14.18z" fill-rule="evenodd"/>
<path fill="#004685" clip-rule="evenodd" d="m327.23 265.54c5.108-24.672-28.072-23.251-24.954-38.284 1.139-5.386 4.821-8.51 10.212-8.51 6.52 0 6.237 5.955 5.104 11.91h15.88c4.821-16.444-1.703-23.533-17.583-23.533-20.137 0-28.072 9.643-30.626 22.117-5.108 23.256 27.79 24.107 24.671 38.284-0.852 5.391-4.534 9.073-9.925 9.073-9.074 0-8.222-6.241-6.52-13.895h-16.449c-3.688 13.613-2.549 25.522 17.865 25.522 12.48 0 28.08-2.27 32.33-22.68" fill-rule="evenodd"/>
<polyline points="333.19 307.79 349.35 307.79 386.5 232.08 371.75 232.08 355.3 270.64 355.02 270.64 355.3 232.08 340.28 232.08 343.4 287.37 333.19 307.79" fill="#004685" clip-rule="evenodd" fill-rule="evenodd"/>
<path fill="#004685" clip-rule="evenodd" d="m384.8 269.5c-3.97 15.315 4.252 18.721 17.583 18.721 12.762 0 22.117-7.375 24.102-17.019 3.688-17.582-23.255-17.013-21.553-25.805 0.852-3.683 3.119-5.955 6.524-5.955 1.698 0 2.836 0.282 3.688 1.421 0.851 0.852 0.851 3.118 0 7.089h15.028c3.401-11.91-4.821-17.014-15.315-17.014-9.925 0-22.404 3.683-24.954 15.598-3.683 17.296 23.82 14.741 21.271 26.374-0.852 3.683-3.688 5.668-6.806 5.668-3.119 0-4.54-0.852-5.109-2.554-0.282-1.703 0-4.253 0.569-6.524h-15.03" fill-rule="evenodd"/>
<path fill="#004685" clip-rule="evenodd" d="m439.24 241.43h6.237l-7.371 34.032c-0.564 3.405-0.852 12.191 12.474 12.191 3.688 0 5.96-0.282 8.228-0.563l1.985-9.644c-0.852 0.282-1.985 0.282-2.836 0.282-5.104 0-4.252-2.554-3.406-6.807l6.242-29.492h7.94l1.985-9.355h-7.94l3.401-15.599-17.014 6.807-1.698 8.792h-6.242l-1.99 9.35" fill-rule="evenodd"/>
<path fill="#004685" clip-rule="evenodd" d="m518.08 261.85c4.252-17.583 4.821-30.908-15.88-30.908-20.137 0-24.954 12.756-28.354 27.785-3.693 17.301-3.411 29.497 16.439 29.497 7.093 0 13.048-1.984 17.301-5.386 4.252-3.41 7.375-8.227 8.791-14.464h-15.598c-0.847 4.821-3.119 9.925-8.504 9.925-6.806 0-4.821-9.925-3.401-16.449h29.2m-27.51-8.5c0.852-4.545 2.554-13.049 9.643-13.049 7.371 0 5.386 7.658 4.54 13.049h-14.18z" fill-rule="evenodd"/>
<path fill="#004685" clip-rule="evenodd" d="m551.82 232.08h-15.316l-11.904 55.016h15.311l8.222-38.003c1.139-4.821 2.555-8.791 7.663-8.791 4.816 0 4.816 3.97 3.965 8.791l-8.227 38.003h15.038l8.217-38.003c0.856-4.821 2.555-8.791 7.376-8.791 5.108 0 5.108 3.97 3.97 8.791l-7.939 38.003h15.311l9.355-44.239c1.703-7.658-3.965-11.91-11.054-11.91-6.524 0-11.346 2.267-15.88 7.089-1.42-4.54-5.391-7.089-10.776-7.089-5.673 0-10.207 1.703-14.464 6.524l1.13-5.39" fill-rule="evenodd"/>
<path fill="#004685" clip-rule="evenodd" d="m608.54 269.5c-3.97 15.315 4.257 18.721 17.588 18.721 12.757 0 22.117-7.375 24.103-17.019 3.683-17.582-23.251-17.013-21.553-25.805 0.851-3.683 3.118-5.955 6.519-5.955 1.708 0 2.842 0.282 3.688 1.421 0.852 0.852 0.852 3.118 0 7.089h15.028c3.405-11.91-5.099-17.014-15.593-17.014-9.93 0-22.404 3.683-24.959 15.598-3.683 17.296 23.825 14.741 21.553 26.374-0.851 3.683-3.97 5.668-7.083 5.668-2.842 0-4.263-0.852-4.821-2.554-0.569-1.703 0-4.253 0.559-6.524h-15.04" fill-rule="evenodd"/>
<path fill="#004685" clip-rule="evenodd" d="m108.59 11.166c-15.878-7.94-25.521-10.489-45.084-10.489-35.448 0-60.124 20.415-60.124 50.189 0 9.36 2.272 17.583 6.806 24.954 6.242 9.925 16.449 16.167 33.181 20.701l18.434 4.821c15.029 3.97 22.117 10.494 22.117 21.271 0 14.459-10.207 22.122-29.493 22.122-16.731 0-30.344-5.108-45.942-13.048l-3.119-1.416-5.668 28.923c16.162 8.222 35.73 12.762 53.313 12.762 41.685 0 69.193-21.835 69.193-54.734 0-24.384-15.034-41.402-42.536-48.773l-20.137-5.386c-13.895-3.692-18.716-7.945-18.716-16.167 0-11.059 9.643-18.999 23.542-18.999 12.475 0 23.251 3.406 38.562 12.192l5.67-28.911" fill-rule="evenodd"/>
<polyline points="127.31 3.226 127.31 31.303 168.14 31.303 168.14 170.82 202.46 170.82 202.46 31.303 242.44 31.303 248.12 3.226 127.31 3.226" fill="#004685" clip-rule="evenodd" fill-rule="evenodd"/>
<path fill="#004685" clip-rule="evenodd" d="m292.35 103.04c3.688-11.059 5.955-18.999 9.073-31.191 3.124-12.484 7.945-32.334 7.945-32.334s5.104 22.122 6.802 29.78c3.406 16.162 9.079 33.745 9.079 33.745h-32.89m-2.27-100.38l-55.015 168.16h35.161l11.915-39.705h49.056l11.915 39.705h36.012l-52.75-168.16h-36.3z" fill-rule="evenodd"/>
<polyline points="402.67 3.226 402.67 170.82 436.41 170.82 436.41 95.957 484.62 95.957 484.62 170.82 518.65 170.82 518.65 3.226 484.62 3.226 484.62 68.449 436.41 68.449 436.41 3.226 402.67 3.226" fill="#004685" clip-rule="evenodd" fill-rule="evenodd"/>
<polyline points="559.76 3.226 559.76 170.82 648.24 170.82 654.48 142.74 594.36 142.74 594.36 3.226 559.76 3.226" fill="#004685" clip-rule="evenodd" fill-rule="evenodd"/>
<polyline points="769.05 3.226 1023.7 3.226 1023.7 257.88 769.05 3.226" fill="#F8991C" clip-rule="evenodd" fill-rule="evenodd"/>
<polyline points="786.06 78.374 786.35 240.58 948.55 240.58 994.49 286.8 740.12 286.8 740.12 32.155 786.06 78.374" fill="#004685" clip-rule="evenodd" fill-rule="evenodd"/>
</svg>
